<svg width="353" height="178" viewBox="0 0 353 178" fill="none" xmlns="http://www.w3.org/2000/svg">
<path d="M0 0H353V178H0V0Z" fill="#051622"/>
<path d="M128.495 67.8027H140.731L152.216 91.4551H150.404L160.419 67.8027H172.895L173.065 70.7764L169.545 71.665C169.522 72.3031 169.522 73.1689 169.545 74.2627C169.568 75.3337 169.602 76.7122 169.647 78.3984L169.989 87.832C170.08 89.9967 170.183 91.8766 170.297 93.4717C170.434 95.0439 170.525 95.9326 170.57 96.1377L174.159 97.0605L173.988 100H157.958L157.787 97.0605L161.376 96.1377C161.422 95.9098 161.456 95.0098 161.479 93.4375C161.524 91.8424 161.524 89.9056 161.479 87.627L161.273 69.4092H164.179L151.156 100.137H147.157L132.187 69.4092H136.288L136.356 88.3789C136.356 91.0905 136.368 93.016 136.391 94.1553C136.413 95.2946 136.459 95.9554 136.527 96.1377L140.355 97.0605L140.185 100H127.777L127.641 97.0605L131.469 96.1377C131.514 95.9326 131.549 95.4313 131.571 94.6338C131.594 93.8135 131.617 92.8564 131.64 91.7627C131.662 90.6462 131.674 89.5524 131.674 88.4814L131.845 78.501C131.89 76.6781 131.902 75.1969 131.879 74.0576C131.856 72.9183 131.845 72.1322 131.845 71.6992L128.358 70.7764L128.495 67.8027Z" fill="#1BA098"/>
<path d="M201.811 100.137L188.856 71.6992L185.985 70.6738L186.156 67.8027H201.605L201.776 70.7764L198.358 71.6992L207.245 92.1045H204.784L212.851 71.6992L208.988 70.7764L209.159 67.8027H220.78L221.054 70.6738L218.148 71.6992L204.989 100.137H201.811Z" fill="#DEB992"/>
</svg>
